<svg width="71" height="71" viewBox="0 0 71 71" fill="none" xmlns="http://www.w3.org/2000/svg">
<path d="M58.5666 13.1721C60.2932 11.4422 63.0952 11.4395 64.8252 13.166V13.166C66.5538 14.8913 66.5581 17.6907 64.8347 19.4212L51.1764 33.1361C49.2308 35.0897 49.2339 38.2496 51.1833 40.1994L64.8684 53.8876C66.5951 55.6148 66.5963 58.4142 64.8711 60.1428V60.1428C63.1445 61.8727 60.3425 61.8755 58.6125 60.1489L38.6402 40.2155C36.6856 38.2648 36.6826 35.099 38.6333 33.1445L58.5666 13.1721Z" fill="url(#paint0_linear_55_566)"/>
<path d="M26.4914 12.1384C28.218 10.4085 31.02 10.4058 32.75 12.1323V12.1323C34.4786 13.8576 34.4829 16.657 32.7595 18.3875L19.1012 32.1024C17.1556 34.056 17.1587 37.2159 19.1081 39.1657L32.7932 52.8539C34.5199 54.5811 34.5211 57.3805 32.7959 59.1091V59.1091C31.0693 60.839 28.2673 60.8418 26.5373 59.1152L6.56498 39.1819C4.61045 37.2311 4.60736 34.0653 6.55807 32.1108L26.4914 12.1384Z" fill="url(#paint1_linear_55_566)"/>
<defs>
<linearGradient id="paint0_linear_55_566" x1="51.5116" y1="10.0497" x2="51.5636" y2="63.2851" gradientUnits="userSpaceOnUse">
<stop stop-color="#0C1B43"/>
<stop offset="1" stop-color="#0E3EBB"/>
</linearGradient>
<linearGradient id="paint1_linear_55_566" x1="19.4364" y1="9.01606" x2="19.4884" y2="62.2514" gradientUnits="userSpaceOnUse">
<stop stop-color="#0C1B43"/>
<stop offset="1" stop-color="#0E3EBB"/>
</linearGradient>
</defs>
</svg>
