<svg width="170" height="177" viewBox="0 0 170 177" fill="none" xmlns="http://www.w3.org/2000/svg">
<path d="M7 28.9599V157C7 168.046 15.9543 177 27 177H33C44.0457 177 52.4591 167.996 53.7016 157.02C55.421 141.832 61.3392 132.5 81.6715 132.5C108.073 132.5 115.898 139.578 118.138 157.022C119.546 167.978 127.954 177 139 177H142C153.046 177 162 168.046 162 157V29.1501C162 19.2358 154.737 10.8179 144.929 9.36581L84.7116 0.45011C82.6967 0.151787 80.6481 0.163011 78.6366 0.483395L23.8542 9.20884C14.1453 10.7552 7 19.1286 7 28.9599Z" fill="url(#paint0_linear_5_411)"/>
<path d="M69.358 61.5831L92.2668 123.549C94.866 130.58 101.724 134.563 108.091 138.518C113.172 141.675 116.254 147.229 117.791 157.053C119.498 167.966 127.954 177 139 177H142C153.046 177 162 168.046 162 157V29.2297C162 19.2808 154.687 10.8446 144.839 9.43226L109.549 4.37128C101.632 3.23597 93.8002 6.92598 89.6353 13.7535L71.043 44.2328C67.8579 49.4543 67.2371 55.8463 69.358 61.5831Z" fill="#0C1B43"/>
<g filter="url(#filter0_d_5_411)">
<rect x="4" y="100" width="55" height="7" rx="3.5" fill="white"/>
</g>
<g filter="url(#filter1_d_5_411)">
<rect x="127" y="100" width="39" height="7" rx="3.5" fill="white"/>
</g>
<g filter="url(#filter2_d_5_411)">
<rect x="75" y="100" width="18" height="7" rx="3.5" fill="white"/>
</g>
<g filter="url(#filter3_d_5_411)">
<rect x="104" y="100" width="11" height="7" rx="3.5" fill="white"/>
</g>
<defs>
<filter id="filter0_d_5_411" x="0" y="100" width="63" height="15" filterUnits="userSpaceOnUse" color-interpolation-filters="sRGB">
<feFlood flood-opacity="0" result="BackgroundImageFix"/>
<feColorMatrix in="SourceAlpha" type="matrix" values="0 0 0 0 0 0 0 0 0 0 0 0 0 0 0 0 0 0 127 0" result="hardAlpha"/>
<feOffset dy="4"/>
<feGaussianBlur stdDeviation="2"/>
<feComposite in2="hardAlpha" operator="out"/>
<feColorMatrix type="matrix" values="0 0 0 0 0 0 0 0 0 0 0 0 0 0 0 0 0 0 0.25 0"/>
<feBlend mode="normal" in2="BackgroundImageFix" result="effect1_dropShadow_5_411"/>
<feBlend mode="normal" in="SourceGraphic" in2="effect1_dropShadow_5_411" result="shape"/>
</filter>
<filter id="filter1_d_5_411" x="123" y="100" width="47" height="15" filterUnits="userSpaceOnUse" color-interpolation-filters="sRGB">
<feFlood flood-opacity="0" result="BackgroundImageFix"/>
<feColorMatrix in="SourceAlpha" type="matrix" values="0 0 0 0 0 0 0 0 0 0 0 0 0 0 0 0 0 0 127 0" result="hardAlpha"/>
<feOffset dy="4"/>
<feGaussianBlur stdDeviation="2"/>
<feComposite in2="hardAlpha" operator="out"/>
<feColorMatrix type="matrix" values="0 0 0 0 0 0 0 0 0 0 0 0 0 0 0 0 0 0 0.25 0"/>
<feBlend mode="normal" in2="BackgroundImageFix" result="effect1_dropShadow_5_411"/>
<feBlend mode="normal" in="SourceGraphic" in2="effect1_dropShadow_5_411" result="shape"/>
</filter>
<filter id="filter2_d_5_411" x="71" y="100" width="26" height="15" filterUnits="userSpaceOnUse" color-interpolation-filters="sRGB">
<feFlood flood-opacity="0" result="BackgroundImageFix"/>
<feColorMatrix in="SourceAlpha" type="matrix" values="0 0 0 0 0 0 0 0 0 0 0 0 0 0 0 0 0 0 127 0" result="hardAlpha"/>
<feOffset dy="4"/>
<feGaussianBlur stdDeviation="2"/>
<feComposite in2="hardAlpha" operator="out"/>
<feColorMatrix type="matrix" values="0 0 0 0 0 0 0 0 0 0 0 0 0 0 0 0 0 0 0.25 0"/>
<feBlend mode="normal" in2="BackgroundImageFix" result="effect1_dropShadow_5_411"/>
<feBlend mode="normal" in="SourceGraphic" in2="effect1_dropShadow_5_411" result="shape"/>
</filter>
<filter id="filter3_d_5_411" x="100" y="100" width="19" height="15" filterUnits="userSpaceOnUse" color-interpolation-filters="sRGB">
<feFlood flood-opacity="0" result="BackgroundImageFix"/>
<feColorMatrix in="SourceAlpha" type="matrix" values="0 0 0 0 0 0 0 0 0 0 0 0 0 0 0 0 0 0 127 0" result="hardAlpha"/>
<feOffset dy="4"/>
<feGaussianBlur stdDeviation="2"/>
<feComposite in2="hardAlpha" operator="out"/>
<feColorMatrix type="matrix" values="0 0 0 0 0 0 0 0 0 0 0 0 0 0 0 0 0 0 0.25 0"/>
<feBlend mode="normal" in2="BackgroundImageFix" result="effect1_dropShadow_5_411"/>
<feBlend mode="normal" in="SourceGraphic" in2="effect1_dropShadow_5_411" result="shape"/>
</filter>
<linearGradient id="paint0_linear_5_411" x1="105" y1="6.4289e-06" x2="23.5" y2="165.5" gradientUnits="userSpaceOnUse">
<stop offset="0.0208333" stop-color="#152858"/>
<stop offset="1" stop-color="#0E3EBB"/>
</linearGradient>
</defs>
</svg>
