<svg width="39" height="35" viewBox="0 0 39 35" fill="none" xmlns="http://www.w3.org/2000/svg">
<path d="M35.1 7.77778V3.88889C35.1 1.74417 33.3508 0 31.2 0H5.85C2.6247 0 0 2.61722 0 5.83333V29.1667C0 33.4464 3.4983 35 5.85 35H35.1C37.2509 35 39 33.2558 39 31.1111V11.6667C39 9.52194 37.2509 7.77778 35.1 7.77778ZM31.2 25.2778H27.3V17.5H31.2V25.2778ZM5.85 7.77778C5.34791 7.75538 4.87384 7.54074 4.52649 7.17853C4.17914 6.81633 3.98528 6.33449 3.98528 5.83333C3.98528 5.33218 4.17914 4.85033 4.52649 4.48813C4.87384 4.12593 5.34791 3.91128 5.85 3.88889H31.2V7.77778H5.85Z" fill="#F8F8F8"/>
</svg>
