<svg width="47" height="47" viewBox="0 0 47 47" fill="none" xmlns="http://www.w3.org/2000/svg">
<path d="M21.6859 5.13011C22.2156 4.75411 22.8492 4.55212 23.4989 4.55212C24.1485 4.55212 24.7821 4.75411 25.3119 5.13011L39.0641 14.8873C40.7726 16.0999 39.9172 18.793 37.8233 18.7977H9.18151C7.08061 18.7977 6.22051 16.1023 7.93601 14.8873L21.6859 5.13011ZM23.5001 13.804C24.0195 13.804 24.5178 13.5976 24.8851 13.2303C25.2524 12.8629 25.4588 12.3647 25.4588 11.8452C25.4588 11.3257 25.2524 10.8275 24.8851 10.4602C24.5178 10.0929 24.0195 9.88651 23.5001 9.88651C22.9806 9.88651 22.4824 10.0929 22.115 10.4602C21.7477 10.8275 21.5413 11.3257 21.5413 11.8452C21.5413 12.3647 21.7477 12.8629 22.115 13.2303C22.4824 13.5976 22.9806 13.804 23.5001 13.804ZM10.5751 21.1501V30.5501H15.2751V21.1501H10.5751ZM7.05006 37.9902C7.05006 35.1772 9.32956 32.8977 12.1402 32.8977H19.5897C19.0671 34 18.7973 35.2051 18.8001 36.4251C18.8001 37.687 19.0821 38.8808 19.592 39.9501H8.22506C7.91343 39.9501 7.61457 39.8263 7.39421 39.6059C7.17386 39.3856 7.05006 39.0867 7.05006 38.7751V37.9925V37.9902ZM21.2676 30.5477C21.5966 30.2281 21.9491 29.9367 22.3251 29.6735V21.1477H17.6251V30.5477H21.2676ZM27.0251 28.1977H29.3751V21.1501H24.6751V28.5408C25.4378 28.3141 26.2294 28.1993 27.0251 28.2001V28.1977ZM31.7251 28.1977H36.4251V21.1501H31.7251V28.2001V28.1977ZM27.0251 30.5477C25.4669 30.5477 23.9726 31.1667 22.8708 32.2685C21.769 33.3702 21.1501 34.8646 21.1501 36.4227C21.1501 37.9809 21.769 39.4752 22.8708 40.577C23.9726 41.6787 25.4669 42.2977 27.0251 42.2977H28.2001C28.5117 42.2977 28.8106 42.1739 29.0309 41.9536C29.2513 41.7332 29.3751 41.4343 29.3751 41.1227C29.3751 40.8111 29.2513 40.5122 29.0309 40.2919C28.8106 40.0715 28.5117 39.9477 28.2001 39.9477H27.0251C26.0902 39.9477 25.1936 39.5763 24.5325 38.9153C23.8714 38.2542 23.5001 37.3576 23.5001 36.4227C23.5001 35.4878 23.8714 34.5912 24.5325 33.9302C25.1936 33.2691 26.0902 32.8977 27.0251 32.8977H28.2001C28.5117 32.8977 28.8106 32.7739 29.0309 32.5536C29.2513 32.3332 29.3751 32.0343 29.3751 31.7227C29.3751 31.4111 29.2513 31.1122 29.0309 30.8919C28.8106 30.6715 28.5117 30.5477 28.2001 30.5477H27.0251ZM35.2501 30.5477C34.9384 30.5477 34.6396 30.6715 34.4192 30.8919C34.1989 31.1122 34.0751 31.4111 34.0751 31.7227C34.0751 32.0343 34.1989 32.3332 34.4192 32.5536C34.6396 32.7739 34.9384 32.8977 35.2501 32.8977H36.4251C37.3599 32.8977 38.2565 33.2691 38.9176 33.9302C39.5787 34.5912 39.9501 35.4878 39.9501 36.4227C39.9501 37.3576 39.5787 38.2542 38.9176 38.9153C38.2565 39.5763 37.3599 39.9477 36.4251 39.9477H35.2501C34.9384 39.9477 34.6396 40.0715 34.4192 40.2919C34.1989 40.5122 34.0751 40.8111 34.0751 41.1227C34.0751 41.4343 34.1989 41.7332 34.4192 41.9536C34.6396 42.1739 34.9384 42.2977 35.2501 42.2977H36.4251C37.9832 42.2977 39.4775 41.6787 40.5793 40.577C41.6811 39.4752 42.3001 37.9809 42.3001 36.4227C42.3001 34.8646 41.6811 33.3702 40.5793 32.2685C39.4775 31.1667 37.9832 30.5477 36.4251 30.5477H35.2501ZM25.8501 36.4227C25.8501 36.1111 25.9739 35.8122 26.1942 35.5919C26.4146 35.3715 26.7134 35.2477 27.0251 35.2477H36.4251C36.7367 35.2477 37.0356 35.3715 37.2559 35.5919C37.4763 35.8122 37.6001 36.1111 37.6001 36.4227C37.6001 36.7343 37.4763 37.0332 37.2559 37.2536C37.0356 37.4739 36.7367 37.5977 36.4251 37.5977H27.0251C26.7134 37.5977 26.4146 37.4739 26.1942 37.2536C25.9739 37.0332 25.8501 36.7343 25.8501 36.4227Z" fill="#F8F8F8"/>
</svg>
