<svg width="40" height="40" viewBox="0 0 40 40" fill="none" xmlns="http://www.w3.org/2000/svg">
<path d="M11.5256 11.1756C10.8764 10.5264 9.82365 10.5264 9.17436 11.1756C8.52557 11.8244 8.525 12.8761 9.17308 13.5256L12.1094 16.4683C14.0568 18.4201 14.0568 21.5799 12.1094 23.5317L9.17308 26.4744C8.525 27.1239 8.52557 28.1756 9.17436 28.8244C9.82365 29.4736 10.8764 29.4736 11.5256 28.8244L16.8145 23.5355C18.7671 21.5829 18.7671 18.4171 16.8145 16.4645L11.5256 11.1756Z" fill="#F8F8F8"/>
<path d="M23.5757 10.7756C22.9264 10.1263 21.8737 10.1263 21.2244 10.7756C20.5756 11.4244 20.575 12.4761 21.2231 13.1256L24.1594 16.0683C26.1069 18.02 26.1069 21.1799 24.1594 23.1317L21.2231 26.0743C20.575 26.7238 20.5756 27.7755 21.2244 28.4243C21.8737 29.0736 22.9264 29.0736 23.5757 28.4243L28.8645 23.1355C30.8171 21.1829 30.8171 18.0171 28.8645 16.0644L23.5757 10.7756Z" fill="#F8F8F8"/>
</svg>
