<svg width="70" height="70" viewBox="0 0 70 70" fill="none" xmlns="http://www.w3.org/2000/svg">
<path d="M32.0834 43.7498H37.9167V26.2498H46.6667L35 11.6665L23.3334 26.2498H32.0834V43.7498Z" fill="#0C1B43"/>
<path d="M58.3334 42.2918C58.3334 47.9297 53.7629 52.5002 48.125 52.5002H21.8751C16.2371 52.5002 11.6667 47.9297 11.6667 42.2918V35.0002C11.6667 33.3893 10.3609 32.0835 8.75004 32.0835C7.13921 32.0835 5.83337 33.3893 5.83337 35.0002V52.5002C5.83337 55.7172 8.44962 58.3335 11.6667 58.3335H58.3334C61.5505 58.3335 64.1667 55.7172 64.1667 52.5002V35.0002C64.1667 33.3893 62.8609 32.0835 61.25 32.0835C59.6392 32.0835 58.3334 33.3893 58.3334 35.0002V42.2918Z" fill="#0C1B43"/>
</svg>
