<svg width="51" height="41" viewBox="0 0 51 41" fill="none" xmlns="http://www.w3.org/2000/svg">
<g clip-path="url(#clip0_55_1012)">
<path d="M42.6328 3.28328C41.8838 2.53055 41.8838 1.31336 42.6328 0.568632C43.3819 -0.176095 44.5931 -0.184102 45.3342 0.568632L50.4342 5.69363C50.7928 6.05398 50.992 6.54246 50.992 7.05496C50.992 7.56746 50.7928 8.05594 50.4342 8.41629L45.3342 13.5413C44.5852 14.294 43.3739 14.294 42.6328 13.5413C41.8917 12.7886 41.8838 11.5714 42.6328 10.8266L44.4656 8.98484L30.6 8.96883C29.5402 8.96883 28.6875 8.11199 28.6875 7.04695C28.6875 5.98191 29.5402 5.12508 30.6 5.12508H44.4736L42.6328 3.28328ZM8.36719 30.1895L6.53437 32.0313H20.4C21.4598 32.0313 22.3125 32.8882 22.3125 33.9532C22.3125 35.0182 21.4598 35.8751 20.4 35.8751H6.52641L8.35922 37.7169C9.10828 38.4696 9.10828 39.6868 8.35922 40.4315C7.61016 41.1762 6.39891 41.1843 5.65781 40.4315L0.557813 35.3145C0.199219 34.9542 0 34.4657 0 33.9532C0 33.4407 0.199219 32.9522 0.557813 32.5919L5.65781 27.4669C6.40687 26.7141 7.61812 26.7141 8.35922 27.4669C9.10031 28.2196 9.10828 29.4368 8.35922 30.1815L8.36719 30.1895ZM7.65 5.12508H26.9264C26.6316 5.70164 26.4562 6.35027 26.4562 7.04695C26.4562 9.34519 28.313 11.211 30.6 11.211H39.9553C39.6366 12.5723 40.0031 14.0538 41.055 15.1188C42.6727 16.7444 45.2944 16.7444 46.912 15.1188L48.45 13.5733V30.7501C48.45 33.5768 46.163 35.8751 43.35 35.8751H24.0736C24.3684 35.2985 24.5437 34.6499 24.5437 33.9532C24.5437 31.655 22.687 29.7891 20.4 29.7891H11.0447C11.3634 28.4278 10.9969 26.9464 9.945 25.8813C8.32734 24.2557 5.70562 24.2557 4.08797 25.8813L2.55 27.4268V10.2501C2.55 7.42332 4.83703 5.12508 7.65 5.12508ZM12.75 10.2501H7.65V15.3751C10.463 15.3751 12.75 13.0768 12.75 10.2501ZM43.35 25.6251C40.537 25.6251 38.25 27.9233 38.25 30.7501H43.35V25.6251ZM25.5 28.1876C29.7234 28.1876 33.15 24.7442 33.15 20.5001C33.15 16.2559 29.7234 12.8126 25.5 12.8126C21.2766 12.8126 17.85 16.2559 17.85 20.5001C17.85 24.7442 21.2766 28.1876 25.5 28.1876Z" fill="#F8F8F8"/>
</g>
<defs>
<clipPath id="clip0_55_1012">
<rect width="51" height="41" fill="white"/>
</clipPath>
</defs>
</svg>
