<svg width="52" height="52" viewBox="0 0 52 52" fill="none" xmlns="http://www.w3.org/2000/svg">
<path d="M18.8652 7.13487C18.0202 7.97987 18.0657 9.34704 18.5662 10.4347C19.089 11.5727 19.2507 12.8436 19.0298 14.0763C18.8088 15.309 18.2156 16.4445 17.3301 17.3301C16.4445 18.2157 15.309 18.8088 14.0763 19.0298C12.8435 19.2508 11.5727 19.089 10.4347 18.5662C9.34699 18.0679 7.97983 18.0202 7.13483 18.8652L5.86516 20.1349C5.45897 20.5412 5.23079 21.0922 5.23079 21.6667C5.23079 22.2412 5.45897 22.7922 5.86516 23.1985L28.8015 46.1349C29.2078 46.5411 29.7588 46.7692 30.3333 46.7692C30.9079 46.7692 31.4588 46.5411 31.8652 46.1349L33.1348 44.8652C33.9798 44.0202 33.9343 42.653 33.4338 41.5654C32.911 40.4273 32.7492 39.1565 32.9702 37.9238C33.1912 36.691 33.7844 35.5555 34.6699 34.67C35.5555 33.7844 36.691 33.1913 37.9237 32.9703C39.1565 32.7493 40.4273 32.9111 41.5653 33.4339C42.653 33.9322 44.0202 33.9799 44.8652 33.1349L46.1348 31.8652C46.541 31.4589 46.7692 30.9079 46.7692 30.3334C46.7692 29.7589 46.541 29.2078 46.1348 28.8015L23.1985 5.86521C22.7922 5.45902 22.2412 5.23083 21.6667 5.23083C21.0921 5.23083 20.5411 5.45902 20.1348 5.86521L18.8652 7.13487V7.13487Z" stroke="#F8F8F8" stroke-width="3" stroke-linecap="round" stroke-linejoin="round"/>
</svg>
