<svg width="53" height="53" viewBox="0 0 53 53" fill="none" xmlns="http://www.w3.org/2000/svg">
<path d="M8.83333 28.7083H22.0833C23.2979 28.7083 24.2917 27.7146 24.2917 26.5V8.83333C24.2917 7.61875 23.2979 6.625 22.0833 6.625H8.83333C7.61875 6.625 6.625 7.61875 6.625 8.83333V26.5C6.625 27.7146 7.61875 28.7083 8.83333 28.7083ZM8.83333 46.375H22.0833C23.2979 46.375 24.2917 45.3812 24.2917 44.1667V35.3333C24.2917 34.1187 23.2979 33.125 22.0833 33.125H8.83333C7.61875 33.125 6.625 34.1187 6.625 35.3333V44.1667C6.625 45.3812 7.61875 46.375 8.83333 46.375ZM30.9167 46.375H44.1667C45.3812 46.375 46.375 45.3812 46.375 44.1667V26.5C46.375 25.2854 45.3812 24.2917 44.1667 24.2917H30.9167C29.7021 24.2917 28.7083 25.2854 28.7083 26.5V44.1667C28.7083 45.3812 29.7021 46.375 30.9167 46.375ZM28.7083 8.83333V17.6667C28.7083 18.8812 29.7021 19.875 30.9167 19.875H44.1667C45.3812 19.875 46.375 18.8812 46.375 17.6667V8.83333C46.375 7.61875 45.3812 6.625 44.1667 6.625H30.9167C29.7021 6.625 28.7083 7.61875 28.7083 8.83333Z" fill="#F8F8F8"/>
</svg>
