<svg width="63" height="63" viewBox="0 0 63 63" fill="none" xmlns="http://www.w3.org/2000/svg">
<path d="M44.8471 17.6016C45.8697 16.579 47.5277 16.579 48.5504 17.6016C49.5722 18.6235 49.5731 20.2799 48.5524 21.3029L41.9015 27.9683C39.954 29.9201 39.954 33.0799 41.9015 35.0317L48.5524 41.6971C49.5731 42.7201 49.5722 44.3765 48.5504 45.3984C47.5277 46.421 45.8697 46.421 44.8471 45.3984L34.4843 35.0355C32.5317 33.0829 32.5317 29.9171 34.4843 27.9645L44.8471 17.6016Z" fill="#F8F8F8"/>
<path d="M25.8684 16.9718C26.891 15.9491 28.549 15.9491 29.5716 16.9718C30.5935 17.9936 30.5944 19.65 29.5737 20.673L22.9227 27.3384C20.9752 29.2902 20.9752 32.4501 22.9227 34.4018L29.5737 41.0672C30.5944 42.0902 30.5935 43.7466 29.5716 44.7685C28.549 45.7911 26.891 45.7911 25.8684 44.7685L15.5055 34.4057C13.5529 32.453 13.5529 29.2872 15.5055 27.3346L25.8684 16.9718Z" fill="#F8F8F8"/>
</svg>
