<svg width="55" height="55" viewBox="0 0 55 55" fill="none" xmlns="http://www.w3.org/2000/svg">
<path d="M4.58325 13.7499H50.4166M22.9166 25.2083V36.6666M32.0833 25.2083V36.6666M9.16658 13.7499H45.8332L42.2124 46.3374C42.0883 47.4589 41.5549 48.4952 40.7142 49.2479C39.8736 50.0005 38.7849 50.4167 37.6566 50.4166H17.3433C16.2149 50.4167 15.1262 50.0005 14.2856 49.2479C13.445 48.4952 12.9115 47.4589 12.7874 46.3374L9.16658 13.7499ZM16.8322 7.21179C17.2029 6.42568 17.7895 5.76116 18.5235 5.29576C19.2575 4.83035 20.1087 4.58324 20.9778 4.58325H34.022C34.8915 4.58281 35.7432 4.82971 36.4777 5.29514C37.2122 5.76057 37.7991 6.42533 38.1699 7.21179L41.2499 13.7499H13.7499L16.8322 7.21179V7.21179Z" stroke="url(#paint0_linear_24_251)" stroke-width="5" stroke-linecap="round" stroke-linejoin="round"/>
<defs>
<linearGradient id="paint0_linear_24_251" x1="42.8999" y1="8.06659" x2="16.8666" y2="50.5999" gradientUnits="userSpaceOnUse">
<stop stop-color="#0C1B43"/>
<stop offset="1" stop-color="#0E3EBB"/>
</linearGradient>
</defs>
</svg>
