<svg width="57" height="57" viewBox="0 0 57 57" fill="none" xmlns="http://www.w3.org/2000/svg">
<path d="M7.125 33.8437C7.125 32.86 7.92249 32.0625 8.90625 32.0625H37.4062C38.39 32.0625 39.1875 32.86 39.1875 33.8437C39.1875 34.8275 38.39 35.625 37.4062 35.625H8.90625C7.92249 35.625 7.125 34.8275 7.125 33.8437ZM7.125 44.5312C7.125 43.5475 7.92249 42.75 8.90625 42.75H33.8437C34.8275 42.75 35.625 43.5475 35.625 44.5312C35.625 45.515 34.8275 46.3125 33.8437 46.3125H8.90625C7.92249 46.3125 7.125 45.515 7.125 44.5312ZM7.125 23.1562C7.125 22.1725 7.92249 21.375 8.90625 21.375H48.0937C49.0775 21.375 49.875 22.1725 49.875 23.1562C49.875 24.14 49.0775 24.9375 48.0937 24.9375H8.90625C7.92249 24.9375 7.125 24.14 7.125 23.1562ZM7.125 12.4687C7.125 11.485 7.92249 10.6875 8.90625 10.6875H44.5312C45.515 10.6875 46.3125 11.485 46.3125 12.4687C46.3125 13.4525 45.515 14.25 44.5312 14.25H8.90625C7.92249 14.25 7.125 13.4525 7.125 12.4687Z" fill="#F8F8F8"/>
</svg>
